<?xml version="1.0" encoding="utf-8"?>
<!-- Generator: Adobe Illustrator 21.0.2, SVG Export Plug-In . SVG Version: 6.00 Build 0)  -->
<svg version="1.1" id="Calque_1" xmlns="http://www.w3.org/2000/svg" xmlns:xlink="http://www.w3.org/1999/xlink" x="0px" y="0px"
	 viewBox="0 0 300 300" style="enable-background:new 0 0 300 300;" xml:space="preserve">
<style type="text/css">
	.st0{fill:#020203;}
</style>
<path class="st0" d="M218.7,160.4c0-0.2,0-0.3,0-0.5c0,0,0,0.1,0,0.1c0.5-7.9,0.9-15.8,1.4-23.7c0.4-6.2,2.8-15.6,0.3-21.5
	c-2.6-6.1-13.4-3.5-18.7-3.7c-7.8-0.3-15.5-1-23.2-2.2c1.2-8.1,2.8-16.4,2.3-24.6c-0.6-8.7-2.1-17.3-2.1-26c0-6.1,3.6-18-0.9-23
	c-4.5-5-22.8-1.9-29.1-1.9c-19.2-0.1-38.5-0.4-57.7-0.7c-9.6-0.2-19.2-0.4-28.9-0.6c-10.7-0.3-8.6,11.4-9,19.5
	c-0.9,18.6-0.3,37.2-0.4,55.7c0,9.2-0.2,18.5-0.8,27.7c-0.4,6-0.2,6.1-4.9,9c-3.4,2.1-6.2,5.1-8.4,8.4c-6.7,9.9-13.3,25.4-13.3,37.6
	c0,15.5,18.1,4.5,24.8,0.7c0.5,16.3,0.2,32.6-1.2,48.9c-0.4,4.6-0.6,8.4,2.7,12.1c1.4,1.6,4.7,2.7,4,4.8c-2.2,6.3-2.8,13.4-4.1,19.9
	c-1.5,7.7,9.8,5.7,14.1,5.8c16.5,0.4,32.9,0.7,49.4,0.9c16.3,0.3,32.6,0.6,49,1.1c8.2,0.2,16.3,0.5,24.5,0.9
	c5.8,0.2,16.6,3,21.7-0.3c5.7-3.8,3-11.7,2.4-17.2c-0.4-3.3-0.8-6.5-1.2-9.8c-0.5-4.5,1.1-4.4,4.1-7.2c4.7-4.5,3.8-12.7,4-18.7
	c0.3-9,0-18.1,0.1-27.1C246.7,211.2,234.5,167.8,218.7,160.4z M219,156.1c0,0.7-0.1,1.4-0.1,2.1C218.9,157.4,218.9,156.7,219,156.1z
	 M62.8,105.4c0-20,1.3-56.8,1-60c19.2,1,70.1,1.3,105.2,1.4c-1.4,21,0.6,42-1,63c-0.7,9.1,1.5,11.2,10.7,12.5
	c10.6,1.5,21.3,2.2,32.1,2.2c-0.6,10.6-1.3,21.1-1.9,31.7c-39.4-5-78.8-10-118.2-15c-9.6-1.2-19.1-2.4-28.7-3.6
	C62.6,126.9,62.8,116.1,62.8,105.4z M42,168.1c-0.2,0.7-0.8,2.3-1.4,3.8C41.4,169.9,41.8,168.6,42,168.1z M206.9,245.1
	C206.8,246.1,206.6,245.9,206.9,245.1L206.9,245.1z M207,232.4c-1.5-2.3-3.4-4.1-5.9-5.3c-2.5-1.2-9.9-1.6-6,3.1
	c3.2,3.9,7.6,11.7,11.9,13.9c-1.1,1.1-2.1,2.3-3,3.6c-1.7-3.6-5-7.3-8.4-9.4c-1.7-1.1-11.9-5.3-10.5,0.1c0.8,2.8,5.8,6.1,8.1,7.8
	c1.8,1.4,3.4,3.2,5.1,4.8c4,3.5,1.3,7.3,1.6,12.4c-2.3-2.7-17.2-25.3-22.5-18.6c-2.1,2.7,20.2,26.4,22.3,28.2
	c-3.6-0.2-6.6,0.6-8.8-2.3c-0.1-0.1-4.6-5.2-4.5-5.3c-2.3-2.4-4.6-4.6-7.4-6.5c-5.9-3.9-4.2,3.5-2.5,6.4c1.5,2.6,3.7,4.9,5.9,7
	c-3.5-0.1-6,0.7-8.2-2c-0.9-1-1.8-1.9-3.1-2.3c-2.3-0.8-8.5-0.1-5.9,3.8c-33.8-1-67.7-1.3-101.5-2.1c2.6-9.7,6.2-18.3-1.6-25.9
	c-3-4.5-2.1-6.9-1.7-12.9c0.5-7,0.8-14.1,0.9-21.1c0.1-5.8,0-11.7-0.1-17.5c-0.1-4.1-1.8-6.7,2.6-8.2c2.8-1,5.7-1.7,8.7-1.9
	c12.7-0.8,26.8,8.5,38.1,13.5c19.3,8.4,35.6,1,54.9-3.2c9-2,18.3-2.5,27.1,0.9c5.4,2.1,10.5,5.2,15.8,7.6
	c-0.5,7.3-0.9,14.5-1.4,21.8C206.7,225.9,207,229.1,207,232.4z M204.2,184c-10-4.5-20.9-7.2-31.9-6c-17.9,1.9-33.9,13.6-52.3,7.1
	c-16.4-5.8-34.6-21.6-53-14.7c-10,3.8-18.6,10.6-28.5,14.2c-5.3,1.9,1-9.7,1.6-11.4c-0.4,1.1-0.8,2.1-0.9,2.5c0.1-0.3,0.4-1,0.9-2.5
	c0,0,0,0,0-0.1c4.8-13,12-20.3,26.5-19.2c22,1.7,44.1,5,66,7.5c21.5,2.4,43.2,4.2,64.6,7.4c15,2.2,23.7,9.4,27,24.5
	C219,188.8,210.4,186.8,204.2,184z"/>
<path class="st0" d="M97,134.8c1.7,11.9,4.5-7.3,4.9-10.2c0.7-5.4-0.6-6.3,4.6-6.2c2.4,0.1,4.8,0.1,7.1,0.2c6,0.2,11.9,0.4,17.9,0.4
	c4.8,0,3,7.6,3.1,11.9c0.1,2.3,0.3,4.5,0.6,6.8c1.7,12,4.4-6.8,4.8-9.9c0.4-2.9,0.7-5.9,0.9-8.8c2.7-0.1,5.3-0.1,8-0.2
	c2.1-0.1,4.2-0.2,6.2-0.5c12.5-1.5-2.4-4.1-7-4.7c-6.9-0.8-6.8-0.1-6.4-6.5c0.2-3.4,0.4-6.7,0.6-10.1c0.3-4.3,0.2-8.7,0.3-13
	c0,0,15-1.2,16.6-1.5c2-0.4,3.7-1.6,0.7-2.5c-5.5-1.7-11.8-1.8-17.4-2.4c-1.8-2.5-0.6-13.3-0.8-16.1c-0.5-6.5-3.5-12.2-4.9-2.5
	c-0.9,5.9-1,12-1.4,18c-8.9-0.7-17.9-1.2-26.9-1.4c-4.7-0.1-4.2,0.1-4.5-4.4c-0.3-5.1-0.2-10.5-1.3-15.5c-1.8-8.1-4.3,2.7-4.6,5.4
	c-0.4,4.6-0.7,9.2-1,13.8c-0.1,1.2-22.1,1.7-24.4,2.2c-6.9,1.4-0.4,3.8,2.9,4.2c4.5,0.6,9.1,0.8,13.7,1.1c2.1,0.1,7.4-0.8,7.3,1.7
	c-0.1,3.7-0.2,7.4-0.3,11c-0.1,5.2-0.4,10.5-0.4,15.8c-1,1-8.8,0.3-10.6,0.4c-4.2,0.2-12.4-0.6-16,2.2c-2.6,2,8.5,3.5,9.7,3.6
	c5.5,0.4,11,0.8,16.4,1.1C96.2,118,96.6,132.1,97,134.8z M104.4,83c8,0.2,16.1,0.4,24.1,0.6c0.2,0,0.6,0,1.1,0c0.3,0,0.4,0,0.3,0
	c1.7,0,3.4,0,5.1,0c-0.3,9.5-0.8,19-0.8,28.4c-10.4-0.8-20.7-1.2-31.1-1.5C103.6,101.4,104.2,92.2,104.4,83z"/>
<path class="st0" d="M173,147.6c5.1,0.2,7.3-19.2,0.5-19.3C168.5,128.2,167.9,147.5,173,147.6z"/>
<path class="st0" d="M156,251.9c-17.3-2.4-34.8-4.7-52.3-3.8c-6.9,0.3-13.8,0.8-20.7,1.4c-1.7,0.2-9.8,0.3-9.8,2.8
	c0,2.4,8.7,2.5,10.3,2.5c12.6,0.6,25.1,0.9,37.7,0.9c11,0.1,22,1.1,33,0.8c2.9-0.1,5.9-0.2,8.8-0.7C170,254.6,157.5,252.1,156,251.9
	z"/>
<path class="st0" d="M191.4,65.6c-0.2-0.1-0.3-0.1-0.4-0.2C191.1,65.4,191.2,65.5,191.4,65.6C199.4,69.4,193.5,66.6,191.4,65.6
	c5.9,2.8,11.9,5.1,18,7.3c4.5,1.6,12.6,6.5,17.4,5.9c8.1-1.1,10.3-20.8,12-27.2c-0.3,1.5,2.1-3.7,2.2-3.9c1.7-2.9,4.2-7.7,1.3-10.8
	c-2.8-2.9-9.6-4.1-13.3-5.7c-5.8-2.5-11.6-5-17.5-7.1c-11.5-4-13,11.8-16,19.8C193.5,48.6,183.8,62,191.4,65.6z M208.3,37.4
	C208.3,37.4,208.3,37.4,208.3,37.4c6.5,2.4,12.7,5.1,19,7.7c4.9,2,2.4,2.9,0.9,7.1c-1.4,3.9-2.6,7.9-3.9,11.9
	c-7.7-2.8-15.5-5.6-23-8.8C204,49.5,204.2,42.3,208.3,37.4z"/>
<path class="st0" d="M270.5,89.5c0-3.2-0.6-7.9-1.8-10.8c-2.9-6.7-10.5-2.5-15.8-1.4c-7.9,1.6-15.9,3.1-23.7,5.4
	c-6.1,1.8-2.9,10.1-1.9,14.1c1.5,5.7,4.1,11.5,4.6,17.4c0.4,4,0,11.8,5.2,13.1c5.7,1.4,15.3-2.7,20.9-4.1c4.9-1.3,16.4-1.9,18.9-6.9
	C279.9,110.3,273.6,97,270.5,89.5z M262.3,96.9C263.2,99.6,262.7,98.1,262.3,96.9L262.3,96.9z M241.6,113.1
	c-1.1-6.3-2.8-12.5-4.4-18.7c7.7-2,15.5-3.4,23.2-5.1c0.4,2.4,1,4.8,1.8,7.1c0,0,0-0.1,0-0.1c0,0,0,0.1,0,0.1c0,0.1,0.1,0.2,0.1,0.3
	c1.2,3.5,2.4,7,3.4,10.6C257.6,109.3,249.7,111.5,241.6,113.1z"/>
</svg>
