<?xml version="1.0" encoding="utf-8"?>
<!-- Generator: Adobe Illustrator 21.0.2, SVG Export Plug-In . SVG Version: 6.00 Build 0)  -->
<svg version="1.1" id="Calque_1" xmlns="http://www.w3.org/2000/svg" xmlns:xlink="http://www.w3.org/1999/xlink" x="0px" y="0px"
	 viewBox="0 0 300 300" style="enable-background:new 0 0 300 300;" xml:space="preserve">
<style type="text/css">
	.st0{fill:none;}
	.st1{fill:#020203;}
</style>
<g>
	<path class="st0" d="M213.5,103.6c-1.7-3.1-4.5-5.8-7.6-8.6c-1.1-1.1-2.3-2.2-3.4-3.3c-8-8.1-13.6-18.5-16.2-29.8h-67.5
		c-2.6,11.2-8.2,21.7-16.2,29.8c-1.1,1.1-2.2,2.2-3.4,3.3c-3,2.9-5.9,5.6-7.6,8.6c-1.8,3.3-2.3,7.2-2.5,11.6
		c17.8-8.1,38.1-7.4,57.3,2.2c26.1,13.2,46.6,16.1,69.5,9.6c0-2.3,0-4.7,0-6.9C216.1,113.7,215.9,108,213.5,103.6L213.5,103.6z"/>
	<path class="st0" d="M193.3,141.7c-16.7,0-33.5-4.7-52.5-14.3c-17.5-8.8-36.1-8.5-51.6,0.7c0,0,0,0,0,0.1c0,2.9,0,5.9,0,8.9
		l-0.1,1.1v113.4c0,10.4,9,18.9,20.2,18.9h86.5c11.1,0,20.2-8.5,20.2-18.9L216,138.9C208.3,140.8,200.8,141.7,193.3,141.7z
		 M115.7,251.2c0,3.1-2.7,5.7-6.1,5.7s-6.1-2.5-6.1-5.7v-8.5c0-3.1,2.7-5.7,6.1-5.7s6.1,2.5,6.1,5.7V251.2z M115.7,218.5
		c0,3.1-2.7,5.7-6.1,5.7s-6.1-2.5-6.1-5.7v-72.4c0-3.1,2.7-5.7,6.1-5.7s6.1,2.5,6.1,5.7V218.5z"/>
	<path class="st0" d="M117.9,48.9l0,0.4c0,0,2.6,0.8,2.6,1.2h64.4c0-0.4,2.6-1.2,2.6-1.2l0-0.4c3.2-0.9,5.5-3.7,5.5-7v-9.7
		c0-4.1-3.5-7.4-7.8-7.4h-64.7c-4.3,0-7.8,3.3-7.8,7.4v9.7C112.4,45.2,114.7,47.9,117.9,48.9z"/>
	<path class="st1" d="M214.5,86.9c-1-1-2.1-2-3.1-3c-8.4-8.5-13.6-20.1-14.5-32.4c4.2-3,6.9-7.8,6.9-13.1v-7
		c0-9.1-7.9-16.6-17.7-16.6H119c-9.7,0-17.7,7.4-17.7,16.6v7c0,5.3,2.7,10.1,6.9,13.1c-0.9,12.2-6.1,23.9-14.5,32.3c-1,1-2,2-3.1,3
		c-3.6,3.4-7.2,6.8-9.8,11.5c-4,7.3-3.9,15.7-3.8,21.8c0,2.6,0,5.3,0,8.1c0,2.7,0,5.5,0,8.4c-0.1,0.5-0.1,0.9-0.1,1.1v113.9
		c0,16.7,14.5,30.3,32.3,30.3h86.5c17.8,0,32.3-13.6,32.3-30.3V139.2l-0.1-3.5c0-2.5,0-5.1,0-7.5c0-2.7,0-5.4,0-7.9
		c0.1-6.1,0.1-14.6-3.8-21.8C221.8,93.7,218.1,90.3,214.5,86.9z M112.4,32.2c0-4.1,3.5-7.4,7.8-7.4H185c4.3,0,7.8,3.3,7.8,7.4v9.7
		c0,3.3-2.3,6-5.5,7l0,0.4c0,0-2.6,0.8-2.6,1.2h-64.4c0-0.4-2.6-1.2-2.6-1.2l0-0.4c-3.2-0.9-5.5-3.7-5.5-7L112.4,32.2L112.4,32.2z
		 M195.9,270.5h-86.5c-11.1,0-20.2-8.5-20.2-18.9V138.3l0.1-1.1c0-3,0-6,0-8.9c0,0,0,0,0-0.1c15.4-9.2,34-9.6,51.6-0.7
		c19,9.6,35.9,14.3,52.5,14.3c7.5,0,15-1,22.7-2.8l0.1,112.7C216,262,207,270.5,195.9,270.5z M216,120.2c0,2.2,0,4.6,0,6.9
		c-22.9,6.4-43.4,3.5-69.5-9.6c-19.2-9.7-39.5-10.3-57.3-2.2c0.1-4.4,0.7-8.4,2.5-11.6c1.7-3.1,4.5-5.8,7.6-8.6
		c1.1-1.1,2.3-2.2,3.4-3.3c8-8.1,13.6-18.5,16.2-29.8h67.5c2.6,11.2,8.2,21.7,16.2,29.8c1.1,1.1,2.2,2.2,3.4,3.3
		c3,2.9,5.9,5.6,7.6,8.6l0,0C215.9,108,216.1,113.7,216,120.2z"/>
	<path class="st1" d="M109.7,237c-3.3,0-6.1,2.5-6.1,5.7v8.5c0,3.1,2.7,5.7,6.1,5.7s6.1-2.5,6.1-5.7v-8.5
		C115.7,239.5,113,237,109.7,237z"/>
	<path class="st1" d="M109.7,140.4c-3.3,0-6.1,2.5-6.1,5.7v72.4c0,3.1,2.7,5.7,6.1,5.7s6.1-2.5,6.1-5.7v-72.4
		C115.7,142.9,113,140.4,109.7,140.4z"/>
</g>
</svg>
