<?xml version="1.0" encoding="utf-8"?>
<!-- Generator: Adobe Illustrator 21.0.2, SVG Export Plug-In . SVG Version: 6.00 Build 0)  -->
<svg version="1.1" id="Calque_1" xmlns="http://www.w3.org/2000/svg" xmlns:xlink="http://www.w3.org/1999/xlink" x="0px" y="0px"
	 viewBox="0 0 300 300" style="enable-background:new 0 0 300 300;" xml:space="preserve">
<style type="text/css">
	.st0{fill:#020203;}
</style>
<g>
	<path class="st0" d="M215.2,66c0,0-82.1-49.7-117.7,26.8c0,0-72.6,41.7-36.1,124.8c0,0,86.2-71.8,96.4-81.9
		C167.8,125.6,215.2,66,215.2,66z"/>
	<path class="st0" d="M217,76.5L162.9,143l-86.4,74c0,0,40.7,47.1,106.2,47.1c25.2,0,54.1-7,85.8-26.4
		C268.6,237.7,310.5,170.3,217,76.5z M252.2,222.5c-23.4,13.4-46.8,20.2-69.4,20.2c-32.5,0-58.1-14-73.6-25.4l67.7-58l1.5-1.3
		l1.2-1.5l38.5-47.3C267.6,168.1,257.2,209.9,252.2,222.5z"/>
	<polygon class="st0" points="82.2,86.5 84.1,79.7 36.1,50.1 23.3,86.5 75.4,89.1 	"/>
</g>
</svg>
