<?xml version="1.0" encoding="utf-8"?>
<!-- Generator: Adobe Illustrator 21.0.2, SVG Export Plug-In . SVG Version: 6.00 Build 0)  -->
<svg version="1.1" id="Calque_1" xmlns="http://www.w3.org/2000/svg" xmlns:xlink="http://www.w3.org/1999/xlink" x="0px" y="0px"
	 viewBox="0 0 300 300" style="enable-background:new 0 0 300 300;" xml:space="preserve">
<style type="text/css">
	.st0{fill:#020203;}
</style>
<path class="st0" d="M137,275.3c-0.9,0-1.8-0.2-2.5-0.7l-20.9-11c-1.7-0.9-2.8-2.7-2.8-4.7v-25.4c0-2.2,1.3-4.1,3.3-4.9l21.2-8.8
	c1.3-0.5,2.7-0.5,4,0l20.9,8.8c2,0.8,3.2,2.8,3.2,4.9v24.4c0,1.9-1,3.7-2.6,4.6l-20.9,12.1C138.9,275,138,275.3,137,275.3z
	 M121.3,255.6l10.5,5.5v-15.1l-10.5-4.6V255.6z M142.3,245.9v14.9l10.5-6.1v-13.9L142.3,245.9z M129.6,233.5l7.3,3.2l7.1-3.5
	l-6.8-2.9L129.6,233.5z M77,272.2c-0.9,0-1.8-0.2-2.5-0.7l-20.9-11c-1.7-0.9-2.8-2.7-2.8-4.7v-25.4c0-2.2,1.4-4.2,3.4-5l22.3-8.4
	c1.2-0.5,2.6-0.4,3.9,0.1l19.7,8.4c1.2,0.5,2.1,1.4,2.7,2.6c0,0,0,0,0,0l0,0c0.1,0.2,0.2,0.4,0.2,0.5c0.2,0.6,0.3,1.3,0.3,1.9v25.4
	c0,2-1.1,3.8-2.8,4.7l-20.9,11C78.7,272,77.9,272.2,77,272.2z M82.2,243v15.1l10.5-5.5v-14.2L82.2,243z M61.2,252.6l10.5,5.5V243
	l-10.5-4.6V252.6z M70.1,230.7l6.9,3l7.5-3.3l-6.4-2.7L70.1,230.7z M204.5,241.7c-0.6,0-1.2-0.1-1.8-0.3l-92.6-34.1
	c-2.1-0.8-3.5-2.8-3.5-5v-85.9c0-18,27.7-42.6,35.7-49.3V38.5c0-1.5,0.6-2.8,1.6-3.9c1-1,2.4-1.5,3.9-1.5l91.4,4.3
	c2.8,0.1,5,2.5,5,5.3v35.7c8.5,5.4,32.6,22.2,32.6,39.9v92.2c0,0.5-0.1,0.9-0.2,1.4c-0.3,1.9-1.5,3.6-3.4,4.3l-66.2,24.6
	C206.4,241.4,205.5,241.7,204.5,241.7z M117.2,198.5l82,30.2V128.3c0-14.2,16.8-32.5,27.8-42.9L149,75.2
	c-13,10.9-31.8,30.4-31.8,41.1L117.2,198.5L117.2,198.5z M239.6,88.1c-12.6,11.1-29.9,29.8-29.9,40.2v100.4l56.7-21.1v-89.1
	C266.4,107.8,248.9,94.2,239.6,88.1z M152.9,65l80.9,10.5V47.9l-80.9-3.9C152.9,44.1,152.9,65,152.9,65z M182.5,211.2
	c-0.5,0-1.1-0.1-1.6-0.3L128,193.6c-2.2-0.7-3.6-2.8-3.6-5.1v-64.1c0-1.6,0.7-3.1,1.9-4.1c1.2-1,2.8-1.4,4.4-1.1l52.8,10.9
	c2.4,0.5,4.2,2.7,4.2,5.2v70.7c0,1.7-0.8,3.3-2.2,4.3C184.7,210.9,183.6,211.2,182.5,211.2z M134.9,184.6l42.3,13.9v-59l-42.3-8.7
	V184.6z M59.5,205.7c-18.5,0-32.6-7.1-39.7-13.7c-2.8-2.6-4.3-6.1-4-9.3c0.2-2.4,1.5-4.5,3.5-5.8c0,0,0,0,0,0
	c10.4-6.7,17.2-20.5,22.6-31.6C47.4,134,51.7,125,59.5,125c7.6,0,11.8,8.3,17,18.7c5.1,10.2,11.6,23,22.2,31.3
	c2.4,1.9,3.7,4.6,3.7,7.7c0,3.9-2.1,8-5.6,10.7C89.7,199.1,75.6,205.7,59.5,205.7z M27.1,184.4c5.4,5,17.1,10.7,32.4,10.7
	c12.6,0,24.6-5,30.9-10c0.8-0.7,1.3-1.4,1.4-1.9c-12.2-9.8-19.4-24.1-24.7-34.5c-2.4-4.8-5.7-11.4-7.6-12.8
	c-2.1,1.5-5.6,8.8-8.2,14.2C45.6,161.6,38.7,175.8,27.1,184.4z"/>
</svg>
