<?xml version="1.0" encoding="utf-8"?>
<!-- Generator: Adobe Illustrator 21.0.2, SVG Export Plug-In . SVG Version: 6.00 Build 0)  -->
<svg version="1.1" id="Calque_1" xmlns="http://www.w3.org/2000/svg" xmlns:xlink="http://www.w3.org/1999/xlink" x="0px" y="0px"
	 viewBox="0 0 300 300" style="enable-background:new 0 0 300 300;" xml:space="preserve">
<style type="text/css">
	.st0{fill:#020203;}
</style>
<path class="st0" d="M291,47.6c1.3-7.3,1.5-15.1,0.3-22.5c-0.9-5.4-3.9-15.6-11.4-14.4c-5.2,0.9-5.1,8.5-6.4,12.3
	c-1.6,4.9-4.3,9.3-8,12.9c0.6-3.6,0.6-7.3-0.5-10.8c-2.4-7.4-10.3-11.8-17.7-12.4c-9.5-0.8-13.1,8.1-14.3,16
	c-0.8,4.7-0.8,9.3-2.7,13.7c-2.1,4.9-5.5,9.2-9.3,13c-3.6,3.6-7.7,6.8-11.8,9.9c-1.5,1.1-3.6,2.3-5.6,3.6c-0.6-4.9-1.5-9.7-3.1-14.2
	c-5.1-14.4-17.2-26.6-28.3-36.7c-2.2-2-5.8-6.8-9.1-6.1c-3.7,0.8-5,6-6.2,9c-3.2,7.7-5.5,15.6-7.4,23.7c-1.9,8-3.8,15.5-2.2,23.8
	c0.6,3,1.4,6,2.3,8.9c-10-5.1-21.1-8.6-31.9-10.3c-8.5-1.3-17.1-0.5-25.6-1.1c-4.2-0.3-8.4-0.9-12.3-2.3C77.2,63,74.5,62,73.1,65
	c-2.7,5.6,1.8,9.9,4.8,14.2c4.9,7.1,8.6,14.9,13.5,22c6.1,9,13.9,15,22.6,19.9c-16.6,9.1-26.6,25.8-35.3,43.4
	c-7.5,15.2,21.3,13.2,29.1,12.7c0.5,0,1-0.1,1.5-0.1c-2.7,2.3-5.4,4.6-8.2,6.8c-15.6,12.6-32.7,22.5-51,30.7
	c-6.4,2.9-13.7,4.9-19.3-0.9c-2.2-2.3-3.4-5.2-3.8-8.3c1.6,1.5,3.4,2.7,5.7,2.5c4.6-0.3,9-2.8,13.4-4.2c4.6-1.4,9.2-2.4,13.8-3.6
	c8-2.1,19.5-5,24.9-11.8c3.2-4.1,2.2-10.2-4.7-9.4c-2.2,0.2-10.1,5.2-15.8,6.3c-6.3,1.1-12,2.7-17.9,5.3c-4.2,1.9-8.1,5.5-12.3,2.3
	c-3.1-2.4-6.7-7.7-11.1-5.5c-8.4,4.3-9.8,21-8.2,29c2.1,10.6,11,17.1,21.6,15.1c11.7-2.2,23.3-7.9,33.7-13.5
	c11.4-6.2,22.1-13.6,32.2-21.5c4.9-3.8,9.7-7.8,14.4-11.8c3.1-2.7,8.7-6,9.4-10.5c3.2-0.9,9.5-3.4,9.6-3.4
	c-1.1,5.6-1.9,11.2-2.2,16.8c-1.9-1-3.9,0.7-5.6,3c-4.4,6.1-8.8,12.2-13.6,18c-7.8,9.5-17.6,13.7-28.3,19.1
	c-13.6,6.9-26.7,17.6-31.7,32.5c-3.5,10.3-4.7,30.6,11.8,27.2c7.2-1.5,12.7-6.5,18.3-11c8.5-6.9,16.8-14,25.1-21
	c4-3.3,7.9-6.7,11.9-9.9c3-2.4,7.7-4.8,8.9-8.8c1-3.7-0.9-13-6.3-8.8c1.4-1.1-22.7,17.9-33.5,27.3c-5.2,4.5-10.4,8.9-15.7,13.3
	c-1.9,1.6-7.2,6.8-10.2,4.5c-4.7-3.6,2.6-15.1,5-18.1c7.1-8.7,17.6-13.9,27.4-18.9c10.6-5.4,19.5-11,26.9-20.4
	c3.4-4.4,6.5-9,9.7-13.6c0.3,4.5,0.8,9,1.6,13.6c0.6,3.5,1.1,7,0.9,10.5c-0.2,3.1-1.6,6.2-0.6,9.2c0.7,2.2,2.3,4.8,4.7,5.5
	c3,0.8,6.2-3.2,8.4-4.8c12.8-9.8,27.1-18.8,35.8-32.8c4.3-7,5.9-14.6,6.5-22.5c6.6,7.7,14.1,14.1,24.3,18.3c6.8,2.8,14,5,20.3,9
	c3.7,2.3,11.7,12.2,14.4,3.3c1-3.3,0.3-7.4,0.3-10.8c-0.1-3.6-0.2-7.3-0.4-10.9c-0.5-7-1.4-14-3.1-20.9c-2.5-9.8-6.8-18.8-13-26.5
	c10.7-4.5,20.2-11.6,29.6-18.3c6.1-4.4,12.2-8.6,18.9-12c2.6-1.3,5.7-2.1,6.8-5.1c0.8-2.3,0.3-5-1-7c-1.8-2.8-4.6-2.9-7.6-3.5
	c-4.1-0.8-12.9-3.7-13.2-3.8c3.9-5.9,7.5-13.5,8.4-15.3C280.7,67.1,289,58.7,291,47.6z M204.3,80.8c2.8-0.6,5-2.8,7.2-4.4
	c3-2.3,6-4.7,9-7.1c8.1-6.8,16.6-14.3,21.4-23.8c2.2-4.2,2.8-8.2,3-12.9c0.1-2.7,0.2-5.8,1-8.5c9.4,2.2,4.7,20.9,2.3,27.5
	c-3.7,10.3-11.9,18.1-19,26.1c-1.7,2-3.4,4.8-1.6,6.6c-7.8,0.1-15.6,0.9-23.4,2.5C204.3,84.7,204.3,82.8,204.3,80.8
	C204.3,80.8,204.3,80.8,204.3,80.8z M246.7,119.3c-5.7,3.9-11.7,7.4-18.2,10c-5.1,2-12.8,2.1-11.1,9.6c1.2,5.3,6.7,8.2,10,12.3
	c3.9,4.9,6.7,10.5,8.6,16.4c2.9,9.4,3.5,19.4,3.7,29.3c-2.2-1.2-4.4-2.3-6.9-3.2c-2.6-0.9-5.1-2-7.5-3.1c1.6-1.4,2.9-3,3.2-5.3
	c0.6-4-2.9-6.9-5.9-3.1c-1.6,1.5-3.1,3.2-4.5,4.8c-1.8-1-3.5-2-5.2-3.2c-1.9-1.3-3.8-2.6-5.6-4c1.5-0.1,3.2-0.5,4.3-1.1
	c2.3-1.2,3.6-3.1,4-5.6c0.6-3.4-3.1-5.4-5.6-3c-0.6,0.4-6,4.6-5.7,5c-0.4,0.6-0.6,1.1-0.7,1.6c-2.6-2.3-5.1-4.8-7.4-7.4
	c-3-3.4-10.1-16.9-14.7-8.1c-1.5,3-0.7,7.1-0.8,10.3c0,1-0.1,1.9-0.1,2.9c-1.4-0.4-2.9-0.4-4.3,0c-3.4,0.8-3.7,5-0.5,6.3
	c1,0.7,2.4,1.5,3.8,2.1c-0.6,2.9-1.6,5.7-2.9,8.4c-1.4-1.2-3-2.1-5-2.1c-4-0.1-6.5,3.6-2.5,6.2c1,0.9,2.1,1.7,3.2,2.5
	c-2.1,2.7-4.3,5.2-6.7,7.5c-1.3-1.2-2.9-1.9-4.8-2c-3.5-0.2-5,3.7-2.3,5.9c0.1,0.2,0.6,0.7,1.2,1.3c-4.2,3.4-8.6,6.6-13,9.8
	c-0.1-1.7-0.4-3.5-0.7-5.3c-1.8-8.9-3.9-16.9-2.9-26.2c0.5-4.5,1.5-9,2.5-13.5c0.2-0.7,0.3-1.3,0.5-2c0.2-0.5,0.4-1,0.6-1.4
	c1.3-3.2,2.5-6.5,3.8-9.7c1.5-3.8,1.3-8.8-2.5-11.3c-3.8-2.6-9.5,3.2-12.8,4.9c-0.8,0.4-1.6,0.8-2.4,1.2c-0.5-1.5-1.3-2.9-2.7-4
	c-3.3-2.6-7.9-0.8-5.7,3.7c0.3,1.1,0.8,2.2,1.2,3.3c-2.2,0.8-4.4,1.5-6.7,2c-1,0.2-2,0.4-2.9,0.6c-0.4-1.2-1.1-2.2-2.1-3
	c-2.9-2.2-7.1-0.8-5.8,3.3c0,0.3,0.1,0.6,0.1,0.9c-5.3,0.5-10.6,0.5-15.9,0.1c4.4-8.4,9.5-16.6,16.5-23c4.7-4.3,10.3-7.6,16.3-9.9
	c5.2-1.9,11.8-2.3,9.4-9.6c-1.9-6-8.8-7.5-13.9-10c-5-2.4-9.8-5.2-13.9-8.9c-7.3-6.6-11.8-14.8-16.5-23c11.1,1.4,22.7,0.5,33.7,2.5
	c7.2,1.3,14.3,3.5,20.9,6.7c3.6,1.7,7.1,3.8,10.4,6c2.3,1.6,5,3.2,7.1,0.4c3.2-4.2,0.1-10.8-1-15.2c-1.4-5.4-2.8-10.8-3.7-16.3
	c-0.9-5.7,1.6-12,3.1-17.5c1.5-6,3.4-11.9,5.8-17.6c8.4,8,15.7,16.9,22.3,26.5c1.4,5.1,2.2,10.9,2.7,14.2c0.9,6.3,2,12.6,2,18.9
	c0,4.2-0.9,9.9,3.2,12.8c2.2,1.5,4.8,0.4,7.2-0.1c3-0.7,6.1-1.3,9.1-1.9c11.6-2,23.7-1.9,35.2,0.4c6.5,1.3,12.7,3.6,18.9,5.8
	C260.2,109.6,253.6,114.7,246.7,119.3z M244,85.3c-2.5-0.3-4.9-0.6-7.3-0.8c0.7-0.4,19.4-23.5,24.9-36.1c1.5,2.4,4.2,3.2,6.8,1
	c6.1-5.3,10.3-11,13-17.6c0.2,4.2,0,8.9,0,10.1c-0.2,11.7-10.3,20-15.4,29.8c-2.8,5.4-5.4,10.9-9.2,15.6c-0.2,0.3-0.3,0.7-0.5,1
	C252.3,87,248.2,85.9,244,85.3z"/>
<path class="st0" d="M189.2,109.9c-2.5-1.8-3.2-2.3-2.8-5.5c0.4-2.9-0.2-6.7-3.2-8c-2.9-1.3-7.4-0.1-10.6-0.2
	c-4-0.2-0.4,2.6,1.3,3.3c2.2,1,6.3,0.1,7.1,2.3c0.6,1.7-1.1,4.2-0.8,6.1c0.3,2.4,1.8,4.3,3.6,5.8c1,0.9,2.4,1.4,2.5,3
	c-0.3-0.1-2.7,8-2.8,8.7c-0.6,2.8,0.5,5.6,0.1,8.3c-0.2,1.7-0.5,3.4-2,4.4c-0.5,0.3-2.9,0.5-3.1,1.1c0.4-1.8-0.4-2.5-2.8-2.3
	c-3.4,0-4.5,2.7-5.8,5.2c-1.3,2.6-4.5,5.7-7.8,4c-4.5-2.3-1-9-0.7-12.5c0.5-4.2-4.3-6-7.3-3.7c-3.6-1,1.1-6,2.1-7.3
	c3.1-3.3,1.2-6.1,0.2-9.6c-1.4-4.9,3-6,6.6-7.8c2.9-1.4-0.6-1.8-1.9-1.8c-2,0-4,0.3-5.8,1.4c-3.8,2.3-4.1,6-3.5,9.9
	c0.5,1.8,1.2,2.5,0.4,4.1c-0.8,1.5-3.1,2.5-4.1,4.2c-3,5.3,0,12.5,5,13.5c-1.3,5.5-0.5,11.6,4.2,15.2c4.8,4.8,13.9,1.3,17.6-3
	c0.8-1,1.5-2.1,2-3.3c2.5,1,5.6,0.8,7.9-0.3c4.2-1.9,6.4-6.6,6.5-11c0.2-4.7-1.3-8,0.6-12.5C193.7,117.5,193.5,113,189.2,109.9z"/>
</svg>
